<svg width="171" height="29" viewBox="0 0 171 29" fill="none" xmlns="http://www.w3.org/2000/svg">
<g clip-path="url(#clip0_103_15243)">
<path d="M49.689 8.68985V26.8674C49.689 27.0851 49.5125 27.2736 49.2773 27.2736H45.5874C45.3669 27.2736 45.1758 27.0996 45.1758 26.8674V8.68985C45.1758 8.47224 44.9994 8.28365 44.7642 8.28365H38.4575C38.237 8.28365 38.0459 8.10956 38.0459 7.87745V4.85994C38.0459 4.64233 38.2223 4.45374 38.4575 4.45374H55.5546C55.7751 4.45374 55.9662 4.62782 55.9662 4.85994V7.89195C55.9662 8.10956 55.7898 8.29816 55.5546 8.29816H50.0712C49.8507 8.29816 49.6595 8.47224 49.6595 8.70436L49.689 8.68985Z" fill="#212121"/>
<path d="M58.9063 12.4618C59.1415 12.4618 59.3179 12.6504 59.3179 12.868V20.8325C59.3179 21.6159 59.3914 22.6749 60.2146 23.4293C60.7292 23.879 61.5671 24.1837 62.3609 24.1837C63.1548 24.1837 63.9927 23.879 64.5073 23.4293C65.3452 22.6749 65.404 21.6159 65.404 20.8325V12.868C65.404 12.6359 65.5951 12.4618 65.8156 12.4618H69.2115C69.4467 12.4618 69.6232 12.6504 69.6232 12.868V21.5143C69.6232 22.849 69.4467 24.6334 67.7856 26.0696C66.4037 27.2737 64.1838 27.7524 62.3462 27.7524C60.5086 27.7524 58.2888 27.2737 56.9069 26.0696C55.2457 24.6334 55.0693 22.849 55.0693 21.5143V12.868C55.0693 12.6359 55.2605 12.4618 55.481 12.4618H58.8768H58.9063Z" fill="#212121"/>
<path d="M78.5615 23.7193H85.8678C86.103 23.7193 86.2794 23.9079 86.2794 24.1255V26.8674C86.2794 27.0995 86.0883 27.2736 85.8678 27.2736H71.7697C71.4316 27.2736 71.2258 26.8819 71.4316 26.6208L79.3259 16.2046C79.3847 16.132 79.3259 16.0305 79.2377 16.0305H72.6665C72.4312 16.0305 72.2548 15.8419 72.2548 15.6243V12.8824C72.2548 12.6503 72.4459 12.4762 72.6665 12.4762H86.0442C86.3823 12.4762 86.5881 12.8679 86.3823 13.129L78.488 23.5597C78.488 23.5597 78.488 23.7193 78.5762 23.7193H78.5615Z" fill="#212121"/>
<path d="M92.7036 12.4618C92.9241 12.4618 93.1152 12.6359 93.1152 12.868V20.847C93.1152 21.6304 93.1887 22.6894 94.0119 23.4438C94.5265 23.8935 95.3644 24.1982 96.1583 24.1982C96.9521 24.1982 97.7901 23.8935 98.3046 23.4438C99.1425 22.6894 99.2013 21.6304 99.2013 20.847V12.868C99.2013 12.6504 99.3777 12.4618 99.613 12.4618H103.024C103.244 12.4618 103.435 12.6359 103.435 12.868V21.5288C103.435 22.8635 103.259 24.6479 101.598 26.0841C100.216 27.2882 97.9959 27.7669 96.1583 27.7669C94.3207 27.7669 92.1008 27.2882 90.719 26.0841C89.0578 24.6479 88.8813 22.8635 88.8813 21.5288V12.868C88.8813 12.6504 89.0578 12.4618 89.293 12.4618H92.7183H92.7036Z" fill="#212121"/>
<path d="M111.256 4.7584V17.4522C111.256 17.6118 111.447 17.6844 111.55 17.5828L116.754 12.5778C116.828 12.5053 116.931 12.4763 117.033 12.4763H121.341C121.694 12.4763 121.87 12.9115 121.605 13.1581L115.593 18.7144C115.431 18.8594 115.431 19.1061 115.563 19.2656L122.296 26.6353C122.532 26.882 122.34 27.2882 122.002 27.2882H117.46C117.342 27.2882 117.239 27.2301 117.166 27.1576C117.166 27.1576 112.888 22.3412 111.579 20.8179C111.477 20.6874 111.256 20.7599 111.256 20.934V26.911C111.256 27.1286 111.08 27.3027 110.859 27.3027H107.419C107.199 27.3027 107.022 27.1286 107.022 26.911V4.7584C107.022 4.54079 107.199 4.3667 107.419 4.3667H110.859C111.08 4.3667 111.256 4.54079 111.256 4.7584Z" fill="#212121"/>
<path d="M128.177 12.4618C128.397 12.4618 128.588 12.6359 128.588 12.868V20.847C128.588 21.6304 128.662 22.6894 129.485 23.4438C130 23.8935 130.838 24.1982 131.631 24.1982C132.425 24.1982 133.263 23.8935 133.778 23.4438C134.616 22.6894 134.674 21.6304 134.674 20.847V12.868C134.674 12.6504 134.851 12.4618 135.086 12.4618H138.497C138.717 12.4618 138.908 12.6359 138.908 12.868V21.5288C138.908 22.8635 138.732 24.6479 137.071 26.0841C135.689 27.2882 133.469 27.7669 131.631 27.7669C129.794 27.7669 127.574 27.2882 126.192 26.0841C124.531 24.6479 124.354 22.8635 124.354 21.5288V12.868C124.354 12.6504 124.531 12.4618 124.766 12.4618H128.191H128.177Z" fill="#212121"/>
<path d="M160.269 12.4618C160.489 12.4618 160.68 12.6359 160.68 12.868V20.847C160.68 21.6304 160.754 22.6894 161.577 23.4438C162.091 23.8935 162.929 24.1982 163.723 24.1982C164.517 24.1982 165.355 23.8935 165.87 23.4438C166.707 22.6894 166.766 21.6304 166.766 20.847V12.868C166.766 12.6504 166.943 12.4618 167.178 12.4618H170.588C170.809 12.4618 171 12.6359 171 12.868V21.5288C171 22.8635 170.824 24.6479 169.163 26.0841C167.781 27.2882 165.561 27.7669 163.723 27.7669C161.886 27.7669 159.666 27.2882 158.284 26.0841C156.623 24.6479 156.446 22.8635 156.446 21.5288V12.868C156.446 12.6504 156.623 12.4618 156.858 12.4618H160.283H160.269Z" fill="#212121"/>
<path d="M151.154 16.5528C150.64 16.1031 150.11 15.7984 149.008 15.7984C147.802 15.7984 147.376 16.1031 146.862 16.5528C146.024 17.3072 145.965 18.3662 145.965 19.1496V27.1431C145.965 27.3607 145.788 27.5348 145.568 27.5348H142.128C141.907 27.5348 141.731 27.3607 141.731 27.1431V18.4677C141.731 17.1331 141.907 15.3487 143.569 13.9125C144.95 12.7084 147.17 12.2296 149.008 12.2296C150.845 12.2296 153.065 12.7084 154.447 13.9125" fill="#212121"/>
<path d="M7.35056 26.5483C7.37996 26.6354 8.0562 28.5213 10.0555 28.9275C12.0548 29.3337 13.4514 27.883 13.5102 27.825L24.1977 16.0596C18.0822 18.0326 11.9666 20.0201 5.85107 21.993L7.36526 26.5483L6.42441 23.6469" fill="url(#paint0_linear_103_15243)"/>
<path d="M4.35149 0.0580574C4.26328 0.0435501 2.27867 -0.333638 0.896796 1.17512C-0.485082 2.68387 0.117652 4.59883 0.147054 4.68587L5.13063 19.6864C6.45371 13.4628 7.77678 7.25366 9.09986 1.03004L4.35149 0.0580574L7.36516 0.696377L4.35149 0.0580574Z" fill="url(#paint1_linear_103_15243)"/>
<path d="M28.9019 10.6483C28.9019 10.6483 30.2838 9.06705 29.637 7.13758C28.9901 5.20812 27.0202 4.75839 26.932 4.74389L11.2756 1.49426C16.0681 5.73038 20.8606 9.98101 25.653 14.2171L28.8872 10.6483L26.8144 12.9115" fill="url(#paint2_linear_103_15243)"/>
</g>
<defs>
<linearGradient id="paint0_linear_103_15243" x1="23.9625" y1="16.3352" x2="7.55912" y2="26.5245" gradientUnits="userSpaceOnUse">
<stop stop-color="#00DBE6"/>
<stop offset="0.81" stop-color="#3EBCFA"/>
<stop offset="0.99" stop-color="#4DB5FF"/>
</linearGradient>
<linearGradient id="paint1_linear_103_15243" x1="4.4838" y1="0.319188" x2="5.11373" y2="19.4838" gradientUnits="userSpaceOnUse">
<stop stop-color="#00D25D"/>
<stop offset="0.26" stop-color="#3ADF58"/>
<stop offset="0.62" stop-color="#85F052"/>
<stop offset="0.87" stop-color="#B4FA4E"/>
<stop offset="1" stop-color="#C7FF4D"/>
</linearGradient>
<linearGradient id="paint2_linear_103_15243" x1="11.6432" y1="1.81342" x2="28.583" y2="10.8333" gradientUnits="userSpaceOnUse">
<stop stop-color="#FBBB00"/>
<stop offset="0.16" stop-color="#FAB404"/>
<stop offset="0.39" stop-color="#FAA211"/>
<stop offset="0.65" stop-color="#F88525"/>
<stop offset="0.94" stop-color="#F75D42"/>
<stop offset="1" stop-color="#F7534A"/>
</linearGradient>
<clipPath id="clip0_103_15243">
<rect width="171" height="29" fill="white"/>
</clipPath>
</defs>
</svg>
