<svg width="30" height="29" viewBox="0 0 30 29" fill="none" xmlns="http://www.w3.org/2000/svg">
<path d="M7.35056 26.5483C7.37996 26.6354 8.0562 28.5213 10.0555 28.9275C12.0548 29.3337 13.4514 27.883 13.5102 27.825L24.1977 16.0596C18.0822 18.0326 11.9666 20.0201 5.85107 21.993L7.36526 26.5483L6.42441 23.6469" fill="url(#paint0_linear_109_62)"/>
<path d="M4.35149 0.0580574C4.26328 0.0435501 2.27867 -0.333638 0.896796 1.17512C-0.485082 2.68387 0.117652 4.59883 0.147054 4.68587L5.13063 19.6864C6.45371 13.4628 7.77678 7.25366 9.09986 1.03004L4.35149 0.0580574L7.36516 0.696377L4.35149 0.0580574Z" fill="url(#paint1_linear_109_62)"/>
<path d="M28.9019 10.6483C28.9019 10.6483 30.2838 9.06705 29.637 7.13758C28.9901 5.20812 27.0202 4.75839 26.932 4.74389L11.2756 1.49426C16.0681 5.73038 20.8606 9.98101 25.653 14.2171L28.8872 10.6483L26.8144 12.9115" fill="url(#paint2_linear_109_62)"/>
<defs>
<linearGradient id="paint0_linear_109_62" x1="23.9625" y1="16.3352" x2="7.55912" y2="26.5245" gradientUnits="userSpaceOnUse">
<stop stop-color="#00DBE6"/>
<stop offset="0.81" stop-color="#3EBCFA"/>
<stop offset="0.99" stop-color="#4DB5FF"/>
</linearGradient>
<linearGradient id="paint1_linear_109_62" x1="4.4838" y1="0.319188" x2="5.11373" y2="19.4838" gradientUnits="userSpaceOnUse">
<stop stop-color="#00D25D"/>
<stop offset="0.26" stop-color="#3ADF58"/>
<stop offset="0.62" stop-color="#85F052"/>
<stop offset="0.87" stop-color="#B4FA4E"/>
<stop offset="1" stop-color="#C7FF4D"/>
</linearGradient>
<linearGradient id="paint2_linear_109_62" x1="11.6432" y1="1.81342" x2="28.583" y2="10.8333" gradientUnits="userSpaceOnUse">
<stop stop-color="#FBBB00"/>
<stop offset="0.16" stop-color="#FAB404"/>
<stop offset="0.39" stop-color="#FAA211"/>
<stop offset="0.65" stop-color="#F88525"/>
<stop offset="0.94" stop-color="#F75D42"/>
<stop offset="1" stop-color="#F7534A"/>
</linearGradient>
</defs>
</svg>
