<svg width="133" height="24" viewBox="0 0 133 24" fill="none" xmlns="http://www.w3.org/2000/svg">
<path d="M11.689 4.68985V22.8674C11.689 23.0851 11.5125 23.2736 11.2773 23.2736H7.58742C7.36691 23.2736 7.1758 23.0996 7.1758 22.8674V4.68985C7.1758 4.47224 6.99939 4.28365 6.76418 4.28365H0.457523C0.23701 4.28365 0.0458984 4.10956 0.0458984 3.87745V0.859938C0.0458984 0.64233 0.222309 0.453735 0.457523 0.453735H17.5546C17.7751 0.453735 17.9662 0.627822 17.9662 0.859938V3.89195C17.9662 4.10956 17.7898 4.29816 17.5546 4.29816H12.0712C11.8507 4.29816 11.6595 4.47224 11.6595 4.70436L11.689 4.68985Z" fill="#212121"/>
<path d="M20.9063 8.46179C21.1415 8.46179 21.3179 8.65039 21.3179 8.86799V16.8325C21.3179 17.6159 21.3914 18.6749 22.2146 19.4293C22.7292 19.879 23.5671 20.1837 24.3609 20.1837C25.1548 20.1837 25.9927 19.879 26.5073 19.4293C27.3452 18.6749 27.404 17.6159 27.404 16.8325V8.86799C27.404 8.63588 27.5951 8.46179 27.8156 8.46179H31.2115C31.4467 8.46179 31.6232 8.65039 31.6232 8.86799V17.5143C31.6232 18.849 31.4467 20.6334 29.7856 22.0696C28.4037 23.2737 26.1838 23.7524 24.3462 23.7524C22.5086 23.7524 20.2888 23.2737 18.9069 22.0696C17.2457 20.6334 17.0693 18.849 17.0693 17.5143V8.86799C17.0693 8.63588 17.2605 8.46179 17.481 8.46179H20.8768H20.9063Z" fill="#212121"/>
<path d="M40.5615 19.7193H47.8678C48.103 19.7193 48.2794 19.9079 48.2794 20.1255V22.8674C48.2794 23.0995 48.0883 23.2736 47.8678 23.2736H33.7697C33.4316 23.2736 33.2258 22.8819 33.4316 22.6208L41.3259 12.2046C41.3847 12.132 41.3259 12.0305 41.2377 12.0305H34.6665C34.4312 12.0305 34.2548 11.8419 34.2548 11.6243V8.8824C34.2548 8.65028 34.4459 8.4762 34.6665 8.4762H48.0442C48.3823 8.4762 48.5881 8.86789 48.3823 9.12902L40.488 19.5597C40.488 19.5597 40.488 19.7193 40.5762 19.7193H40.5615Z" fill="#212121"/>
<path d="M54.7036 8.46179C54.9241 8.46179 55.1152 8.63588 55.1152 8.86799V16.847C55.1152 17.6304 55.1887 18.6894 56.0119 19.4438C56.5265 19.8935 57.3644 20.1982 58.1583 20.1982C58.9521 20.1982 59.7901 19.8935 60.3046 19.4438C61.1425 18.6894 61.2013 17.6304 61.2013 16.847V8.86799C61.2013 8.65039 61.3777 8.46179 61.613 8.46179H65.0235C65.2441 8.46179 65.4352 8.63588 65.4352 8.86799V17.5288C65.4352 18.8635 65.2588 20.6479 63.5976 22.0841C62.2157 23.2882 59.9959 23.7669 58.1583 23.7669C56.3207 23.7669 54.1008 23.2882 52.719 22.0841C51.0578 20.6479 50.8813 18.8635 50.8813 17.5288V8.86799C50.8813 8.65039 51.0578 8.46179 51.293 8.46179H54.7183H54.7036Z" fill="#212121"/>
<path d="M73.2561 0.758395V13.4522C73.2561 13.6118 73.4472 13.6844 73.5501 13.5828L78.7542 8.5778C78.8277 8.50527 78.9306 8.47625 79.0335 8.47625H83.3408C83.6936 8.47625 83.87 8.91147 83.6054 9.15809L77.5928 14.7144C77.4311 14.8594 77.4311 15.1061 77.5634 15.2656L84.2964 22.6353C84.5316 22.882 84.3405 23.2882 84.0023 23.2882H79.4598C79.3422 23.2882 79.2393 23.2301 79.1658 23.1576C79.1658 23.1576 74.8878 18.3412 73.5795 16.8179C73.4766 16.6874 73.2561 16.7599 73.2561 16.934V22.911C73.2561 23.1286 73.0796 23.3027 72.8591 23.3027H69.4191C69.1986 23.3027 69.0222 23.1286 69.0222 22.911V0.758395C69.0222 0.540786 69.1986 0.366699 69.4191 0.366699H72.8591C73.0796 0.366699 73.2561 0.540786 73.2561 0.758395Z" fill="#212121"/>
<path d="M90.1767 8.46179C90.3972 8.46179 90.5883 8.63588 90.5883 8.86799V16.847C90.5883 17.6304 90.6618 18.6894 91.4851 19.4438C91.9996 19.8935 92.8376 20.1982 93.6314 20.1982C94.4253 20.1982 95.2632 19.8935 95.7777 19.4438C96.6157 18.6894 96.6745 17.6304 96.6745 16.847V8.86799C96.6745 8.65039 96.8509 8.46179 97.0861 8.46179H100.497C100.717 8.46179 100.908 8.63588 100.908 8.86799V17.5288C100.908 18.8635 100.732 20.6479 99.0707 22.0841C97.6888 23.2882 95.469 23.7669 93.6314 23.7669C91.7938 23.7669 89.574 23.2882 88.1921 22.0841C86.5309 20.6479 86.3545 18.8635 86.3545 17.5288V8.86799C86.3545 8.65039 86.5309 8.46179 86.7661 8.46179H90.1914H90.1767Z" fill="#212121"/>
<path d="M122.269 8.46179C122.489 8.46179 122.68 8.63588 122.68 8.86799V16.847C122.68 17.6304 122.754 18.6894 123.577 19.4438C124.091 19.8935 124.929 20.1982 125.723 20.1982C126.517 20.1982 127.355 19.8935 127.87 19.4438C128.707 18.6894 128.766 17.6304 128.766 16.847V8.86799C128.766 8.65039 128.943 8.46179 129.178 8.46179H132.588C132.809 8.46179 133 8.63588 133 8.86799V17.5288C133 18.8635 132.824 20.6479 131.163 22.0841C129.781 23.2882 127.561 23.7669 125.723 23.7669C123.886 23.7669 121.666 23.2882 120.284 22.0841C118.623 20.6479 118.446 18.8635 118.446 17.5288V8.86799C118.446 8.65039 118.623 8.46179 118.858 8.46179H122.283H122.269Z" fill="#212121"/>
<path d="M113.154 12.5528C112.64 12.1031 112.11 11.7984 111.008 11.7984C109.802 11.7984 109.376 12.1031 108.862 12.5528C108.024 13.3072 107.965 14.3662 107.965 15.1496V23.1431C107.965 23.3607 107.788 23.5348 107.568 23.5348H104.128C103.907 23.5348 103.731 23.3607 103.731 23.1431V14.4677C103.731 13.1331 103.907 11.3487 105.569 9.91246C106.95 8.70835 109.17 8.22961 111.008 8.22961C112.845 8.22961 115.065 8.70835 116.447 9.91246" fill="#212121"/>
</svg>
