<svg width="288" height="30" viewBox="0 0 288 30" fill="none" xmlns="http://www.w3.org/2000/svg">
<path d="M49.6977 8.68412V26.8617C49.6977 27.0793 49.5213 27.2679 49.2861 27.2679H45.5962C45.3757 27.2679 45.1846 27.0938 45.1846 26.8617V8.68412C45.1846 8.46651 45.0082 8.27791 44.773 8.27791H38.4663C38.2458 8.27791 38.0547 8.10383 38.0547 7.87171V4.8542C38.0547 4.63659 38.2311 4.448 38.4663 4.448H55.5634C55.7839 4.448 55.975 4.62209 55.975 4.8542V7.88622C55.975 8.10383 55.7986 8.29242 55.5634 8.29242H50.08C49.8595 8.29242 49.6683 8.46651 49.6683 8.69862L49.6977 8.68412Z" fill="#212121"/>
<path d="M58.915 12.4558C59.1503 12.4558 59.3267 12.6444 59.3267 12.862V20.8265C59.3267 21.6099 59.4002 22.6689 60.2234 23.4233C60.7379 23.873 61.5759 24.1777 62.3697 24.1777C63.1636 24.1777 64.0015 23.873 64.5161 23.4233C65.354 22.6689 65.4128 21.6099 65.4128 20.8265V12.862C65.4128 12.6299 65.6039 12.4558 65.8244 12.4558H69.2203C69.4555 12.4558 69.6319 12.6444 69.6319 12.862V21.5083C69.6319 22.843 69.4555 24.6274 67.7943 26.0636C66.4125 27.2677 64.1926 27.7465 62.355 27.7465C60.5174 27.7465 58.2976 27.2677 56.9157 26.0636C55.2545 24.6274 55.0781 22.843 55.0781 21.5083V12.862C55.0781 12.6299 55.2692 12.4558 55.4898 12.4558H58.8856H58.915Z" fill="#212121"/>
<path d="M78.57 23.7136H85.8763C86.1116 23.7136 86.288 23.9022 86.288 24.1198V26.8617C86.288 27.0938 86.0969 27.2679 85.8763 27.2679H71.7782C71.4401 27.2679 71.2343 26.8762 71.4401 26.615L79.3345 16.1988C79.3933 16.1263 79.3345 16.0247 79.2463 16.0247H72.675C72.4398 16.0247 72.2634 15.8361 72.2634 15.6185V12.8767C72.2634 12.6445 72.4545 12.4705 72.675 12.4705H86.0527C86.3909 12.4705 86.5967 12.8622 86.3909 13.1233L78.4965 23.554C78.4965 23.554 78.4965 23.7136 78.5847 23.7136H78.57Z" fill="#212121"/>
<path d="M92.7124 12.4558C92.9329 12.4558 93.124 12.6299 93.124 12.862V20.841C93.124 21.6244 93.1975 22.6834 94.0207 23.4378C94.5353 23.8875 95.3732 24.1922 96.1671 24.1922C96.9609 24.1922 97.7988 23.8875 98.3134 23.4378C99.1513 22.6834 99.2101 21.6244 99.2101 20.841V12.862C99.2101 12.6444 99.3865 12.4558 99.6217 12.4558H103.032C103.253 12.4558 103.444 12.6299 103.444 12.862V21.5228C103.444 22.8575 103.268 24.6419 101.606 26.0781C100.224 27.2822 98.0047 27.761 96.1671 27.761C94.3294 27.761 92.1096 27.2822 90.7277 26.0781C89.0665 24.6419 88.8901 22.8575 88.8901 21.5228V12.862C88.8901 12.6444 89.0666 12.4558 89.3018 12.4558H92.7271H92.7124Z" fill="#212121"/>
<path d="M111.265 4.75254V17.4464C111.265 17.606 111.456 17.6785 111.559 17.5769L116.763 12.5719C116.836 12.4994 116.939 12.4704 117.042 12.4704H121.349C121.702 12.4704 121.879 12.9056 121.614 13.1522L115.601 18.7085C115.44 18.8536 115.44 19.1002 115.572 19.2598L122.305 26.6295C122.54 26.8761 122.349 27.2823 122.011 27.2823H117.468C117.351 27.2823 117.248 27.2243 117.174 27.1517C117.174 27.1517 112.896 22.3353 111.588 20.8121C111.485 20.6815 111.265 20.754 111.265 20.9281V26.9051C111.265 27.1227 111.088 27.2968 110.868 27.2968H107.428C107.207 27.2968 107.031 27.1227 107.031 26.9051V4.75254C107.031 4.53493 107.207 4.36084 107.428 4.36084H110.868C111.088 4.36084 111.265 4.53493 111.265 4.75254Z" fill="#212121"/>
<path d="M128.186 12.4558C128.406 12.4558 128.597 12.6299 128.597 12.862V20.841C128.597 21.6244 128.671 22.6834 129.494 23.4378C130.008 23.8875 130.846 24.1922 131.64 24.1922C132.434 24.1922 133.272 23.8875 133.787 23.4378C134.624 22.6834 134.683 21.6244 134.683 20.841V12.862C134.683 12.6444 134.86 12.4558 135.095 12.4558H138.505C138.726 12.4558 138.917 12.6299 138.917 12.862V21.5228C138.917 22.8575 138.741 24.6419 137.079 26.0781C135.698 27.2822 133.478 27.761 131.64 27.761C129.803 27.761 127.583 27.2822 126.201 26.0781C124.54 24.6419 124.363 22.8575 124.363 21.5228V12.862C124.363 12.6444 124.54 12.4558 124.775 12.4558H128.2H128.186Z" fill="#212121"/>
<path d="M160.277 12.4558C160.498 12.4558 160.689 12.6299 160.689 12.862V20.841C160.689 21.6244 160.762 22.6834 161.586 23.4378C162.1 23.8875 162.938 24.1922 163.732 24.1922C164.526 24.1922 165.364 23.8875 165.878 23.4378C166.716 22.6834 166.775 21.6244 166.775 20.841V12.862C166.775 12.6444 166.951 12.4558 167.187 12.4558H170.597C170.818 12.4558 171.009 12.6299 171.009 12.862V21.5228C171.009 22.8575 170.832 24.6419 169.171 26.0781C167.789 27.2822 165.57 27.761 163.732 27.761C161.894 27.761 159.675 27.2822 158.293 26.0781C156.631 24.6419 156.455 22.8575 156.455 21.5228V12.862C156.455 12.6444 156.631 12.4558 156.867 12.4558H160.292H160.277Z" fill="#212121"/>
<path d="M151.163 16.547C150.648 16.0973 150.119 15.7927 149.017 15.7927C147.811 15.7927 147.385 16.0973 146.87 16.547C146.032 17.3014 145.974 18.3604 145.974 19.1438V27.1373C145.974 27.3549 145.797 27.529 145.577 27.529H142.137C141.916 27.529 141.74 27.3549 141.74 27.1373V18.462C141.74 17.1273 141.916 15.3429 143.577 13.9067C144.959 12.7026 147.179 12.2239 149.017 12.2239C150.854 12.2239 153.074 12.7026 154.456 13.9067" fill="#212121"/>
<path d="M7.35935 26.5425C7.38875 26.6295 8.06499 28.5154 10.0643 28.9216C12.0636 29.3278 13.4602 27.8771 13.519 27.8191L24.2065 16.0537C18.091 18.0267 11.9754 20.0142 5.85986 21.9872L7.37405 26.5425L6.4332 23.641" fill="url(#paint0_linear_290_23758)"/>
<path d="M4.36028 0.052198C4.27207 0.0376907 2.28746 -0.339498 0.905585 1.16926C-0.476292 2.67801 0.126441 4.59297 0.155843 4.68001L5.13942 19.6805C6.4625 13.4569 7.78557 7.2478 9.10865 1.02418L4.36028 0.052198L7.37395 0.690517L4.36028 0.052198Z" fill="url(#paint1_linear_290_23758)"/>
<path d="M28.9105 10.6426C28.9105 10.6426 30.2923 9.06131 29.6455 7.13185C28.9987 5.20238 27.0288 4.75266 26.9406 4.73815L11.2842 1.48853C16.0766 5.72464 20.8691 9.97527 25.6616 14.2114L28.8958 10.6426L26.823 12.9057" fill="url(#paint2_linear_290_23758)"/>
<path d="M200.952 13.4V17.928H202.856V13.4H200.952ZM197.624 14.664V16.216H206.264V14.664H197.624ZM198.2 17.16V18.728H205.784V17.16H198.2ZM197.576 19.448V22.632H199.176V20.936H204.744V22.632H206.408V19.448H197.576ZM202.376 21.736V26.168C202.376 27.768 202.68 28.296 204.056 28.296C204.296 28.296 204.824 28.296 205.08 28.296C206.184 28.296 206.616 27.672 206.76 25.384C206.296 25.256 205.56 24.984 205.224 24.68C205.192 26.424 205.128 26.68 204.888 26.68C204.776 26.68 204.44 26.68 204.36 26.68C204.136 26.68 204.104 26.616 204.104 26.152V21.736H202.376ZM199.496 21.736V22.984C199.496 24.168 199.144 25.928 196.488 27.176C196.92 27.512 197.512 28.072 197.8 28.456C200.792 27 201.224 24.68 201.224 23.032V21.736H199.496ZM193.864 13.432C193.496 14.536 192.808 16.088 192.248 17.048L193.528 17.576C194.136 16.68 194.872 15.256 195.528 14.008L193.864 13.432ZM195.672 15.32C194.824 17.032 193.368 19.368 192.168 20.808L193.272 21.432C194.504 20.056 196.056 17.832 197.224 16.04L195.672 15.32ZM191.384 17.16C192.184 17.976 193.128 19.112 193.48 19.896L194.52 18.424C194.136 17.672 193.16 16.632 192.328 15.88L191.384 17.16ZM195.128 19.16C195.72 20.264 196.28 21.736 196.456 22.664L197.896 22.008C197.704 21.096 197.096 19.688 196.456 18.6L195.128 19.16ZM191.336 20.44L191.544 22.088C193.032 21.976 194.984 21.832 196.856 21.688L196.84 20.12C194.84 20.248 192.776 20.36 191.336 20.44ZM195.56 23.176C195.912 24.088 196.216 25.272 196.296 26.056L197.72 25.592C197.608 24.824 197.288 23.656 196.904 22.76L195.56 23.176ZM192.024 22.824C191.896 24.168 191.656 25.608 191.208 26.552C191.576 26.712 192.28 27.016 192.6 27.224C193.064 26.2 193.4 24.616 193.56 23.08L192.024 22.824ZM193.784 21.288V28.44H195.432V21.288H193.784ZM218.904 15.48L217.032 13.816C216.776 14.2 216.264 14.728 215.8 15.176C214.728 16.232 212.52 18.008 211.272 19.032C209.672 20.36 209.544 21.224 211.128 22.584C212.6 23.816 214.952 25.832 215.912 26.84C216.392 27.32 216.872 27.816 217.32 28.328L219.176 26.6C217.544 25.016 214.504 22.632 213.304 21.624C212.44 20.872 212.424 20.68 213.272 19.96C214.344 19.032 216.456 17.4 217.496 16.568C217.864 16.264 218.392 15.848 218.904 15.48ZM231.096 14.168L228.984 13.992C228.936 14.808 228.728 15.784 228.408 16.648C227.736 18.408 226.504 20.136 224.456 22.024L226.168 23.304C226.712 22.6 227.16 22.024 227.64 21.544C228.248 20.968 229.256 20.44 230.136 20.44C230.808 20.44 231.448 20.776 231.448 21.8C231.464 22.664 231.432 24.024 231.368 24.776H233.288C233.272 23.768 233.224 22.024 233.224 21.16C233.224 19.672 232.216 18.888 230.888 18.888C230.344 18.888 229.496 19 229.064 19.192C229.512 18.552 229.976 17.64 230.312 16.856C230.76 15.704 230.968 14.76 231.096 14.168ZM225.064 15.656V17.512C225.944 17.592 227.112 17.624 227.768 17.624C229.72 17.624 232.936 17.48 235.192 17.16L235.208 15.304C232.888 15.72 229.992 15.832 227.88 15.832C227.064 15.832 225.88 15.768 225.064 15.656ZM237.736 20.2L236.952 18.328C236.344 18.632 235.784 18.888 235.16 19.16C234.2 19.608 233.192 19.992 231.72 20.76C229.8 21.72 227.512 23.032 227.512 25.256C227.512 27.32 229.384 27.944 231.88 27.944C233.4 27.944 235.352 27.8 236.424 27.656L236.488 25.592C235.08 25.88 233.288 26.056 231.928 26.056C230.376 26.056 229.608 25.816 229.608 24.936C229.608 24.056 230.392 23.368 231.848 22.616C233.352 21.848 234.792 21.272 235.832 20.872C236.376 20.664 237.24 20.344 237.736 20.2ZM247.352 16.024L246.456 17.848H255.032V16.024H247.352ZM249.464 19.544V21.288H254.616V19.544H249.464ZM249.448 23.08V24.872H254.824V23.08H249.448ZM248.488 16.632V28.44H250.456V16.632H248.488ZM247.72 13.56C246.984 15.88 245.72 18.184 244.312 19.624C244.728 19.928 245.464 20.616 245.768 20.968C247.24 19.304 248.68 16.648 249.576 14.056L247.72 13.56ZM243.496 13.48C242.68 15.768 241.288 18.04 239.816 19.496C240.152 19.976 240.696 21.064 240.872 21.544C242.632 19.72 244.312 16.792 245.352 14.072L243.496 13.48ZM241.88 17.896V28.424H243.816V15.976L243.8 15.96L241.88 17.896ZM259.16 14.824L259.224 16.904C259.592 16.84 260.088 16.808 260.52 16.776C261.384 16.712 263.592 16.632 264.408 16.6C263.624 17.304 261.944 18.648 261.048 19.384C260.12 20.168 258.184 21.8 257.048 22.696L258.504 24.2C260.216 22.264 261.8 20.952 264.264 20.952C266.136 20.952 267.576 21.928 267.576 23.384C267.576 25.096 266.2 26.12 263.496 26.12C262.52 26.12 261.864 25.72 261.864 25.128C261.864 24.712 262.264 24.344 262.856 24.344C263.8 24.344 264.408 25.144 264.44 26.296L266.312 26.056C266.264 24.296 265.048 22.824 262.856 22.824C261.16 22.824 259.976 24.008 259.976 25.304C259.976 26.92 261.656 27.928 263.88 27.928C267.752 27.928 269.672 25.928 269.672 23.4C269.672 21.08 267.608 19.384 264.888 19.384C264.392 19.384 263.912 19.416 263.368 19.56C264.392 18.76 266.072 17.352 266.936 16.744C267.288 16.472 267.672 16.248 268.04 16.008L267.016 14.568C266.824 14.632 266.456 14.696 265.784 14.744C264.872 14.824 261.464 14.904 260.6 14.904C260.152 14.904 259.608 14.872 259.16 14.824ZM274.888 23.048C273.464 23.048 272.296 24.2 272.296 25.624C272.296 27.064 273.464 28.216 274.888 28.216C276.328 28.216 277.48 27.064 277.48 25.624C277.48 24.2 276.328 23.048 274.888 23.048ZM274.888 27.064C274.104 27.064 273.448 26.424 273.448 25.624C273.448 24.84 274.104 24.2 274.888 24.2C275.688 24.2 276.328 24.84 276.328 25.624C276.328 26.424 275.688 27.064 274.888 27.064Z" fill="#212121"/>
<defs>
<linearGradient id="paint0_linear_290_23758" x1="23.9713" y1="16.3293" x2="7.56791" y2="26.5186" gradientUnits="userSpaceOnUse">
<stop stop-color="#00DBE6"/>
<stop offset="0.81" stop-color="#3EBCFA"/>
<stop offset="0.99" stop-color="#4DB5FF"/>
</linearGradient>
<linearGradient id="paint1_linear_290_23758" x1="4.49259" y1="0.313329" x2="5.12252" y2="19.478" gradientUnits="userSpaceOnUse">
<stop stop-color="#00D25D"/>
<stop offset="0.26" stop-color="#3ADF58"/>
<stop offset="0.62" stop-color="#85F052"/>
<stop offset="0.87" stop-color="#B4FA4E"/>
<stop offset="1" stop-color="#C7FF4D"/>
</linearGradient>
<linearGradient id="paint2_linear_290_23758" x1="11.6517" y1="1.80768" x2="28.5915" y2="10.8275" gradientUnits="userSpaceOnUse">
<stop stop-color="#FBBB00"/>
<stop offset="0.16" stop-color="#FAB404"/>
<stop offset="0.39" stop-color="#FAA211"/>
<stop offset="0.65" stop-color="#F88525"/>
<stop offset="0.94" stop-color="#F75D42"/>
<stop offset="1" stop-color="#F7534A"/>
</linearGradient>
</defs>
</svg>
